<?xml version="1.0" encoding="UTF-8" standalone="no"?>
<!-- Created with Inkscape (http://www.inkscape.org/) -->

<svg
   xmlns:dc="http://purl.org/dc/elements/1.1/"
   xmlns:cc="http://creativecommons.org/ns#"
   xmlns:rdf="http://www.w3.org/1999/02/22-rdf-syntax-ns#"
   xmlns:svg="http://www.w3.org/2000/svg"
   xmlns="http://www.w3.org/2000/svg"
   xmlns:sodipodi="http://sodipodi.sourceforge.net/DTD/sodipodi-0.dtd"
   xmlns:inkscape="http://www.inkscape.org/namespaces/inkscape"
   width="212.672mm"
   height="26.188999mm"
   viewBox="0 0 212.672 26.188999"
   version="1.1"
   id="svg8"
   inkscape:version="0.92.2 5c3e80d, 2017-08-06"
   sodipodi:docname="logo.svg">
  <defs
     id="defs2" />
  <sodipodi:namedview
     id="base"
     pagecolor="#ffffff"
     bordercolor="#666666"
     borderopacity="1.0"
     inkscape:pageopacity="0.0"
     inkscape:pageshadow="2"
     inkscape:zoom="0.82037492"
     inkscape:cx="377.49054"
     inkscape:cy="44.920363"
     inkscape:document-units="mm"
     inkscape:current-layer="layer1"
     showgrid="false"
     inkscape:window-width="1189"
     inkscape:window-height="683"
     inkscape:window-x="53"
     inkscape:window-y="28"
     inkscape:window-maximized="0"
     inkscape:showpageshadow="true" />
  <metadata
     id="metadata5">
    <rdf:RDF>
      <cc:Work
         rdf:about="">
        <dc:format>image/svg+xml</dc:format>
        <dc:type
           rdf:resource="http://purl.org/dc/dcmitype/StillImage" />
        <dc:title></dc:title>
      </cc:Work>
    </rdf:RDF>
  </metadata>
  <g
     inkscape:label="Layer 1"
     inkscape:groupmode="layer"
     id="layer1"
     transform="translate(0,-270.811)">
    <flowRoot
       xml:space="preserve"
       id="flowRoot3732"
       style="font-style:normal;font-weight:normal;font-size:40px;line-height:1.25;font-family:sans-serif;letter-spacing:0px;word-spacing:0px;fill:#000000;fill-opacity:1;stroke:none"
       transform="scale(0.26458333)"><flowRegion
         id="flowRegion3734"><rect
           id="rect3736"
           width="14.285714"
           height="105.71429"
           x="37.142857"
           y="53.948257" /></flowRegion><flowPara
         id="flowPara3738" /></flowRoot>    <flowRoot
       xml:space="preserve"
       id="flowRoot3740"
       style="font-style:normal;font-weight:normal;font-size:40px;line-height:1.25;font-family:sans-serif;letter-spacing:0px;word-spacing:0px;fill:#000000;fill-opacity:1;stroke:none"
       transform="scale(0.26458333)"><flowRegion
         id="flowRegion3742"><rect
           id="rect3744"
           width="200.01021"
           height="252.53813"
           x="-684.88342"
           y="-162.39435" /></flowRegion><flowPara
         id="flowPara3746" /></flowRoot>    <flowRoot
       xml:space="preserve"
       id="flowRoot3804"
       style="font-style:normal;font-weight:normal;font-size:40px;line-height:1.25;font-family:sans-serif;letter-spacing:0px;word-spacing:0px;fill:#000000;fill-opacity:1;stroke:none"
       transform="scale(0.26458333)"><flowRegion
         id="flowRegion3806"><rect
           id="rect3808"
           width="288.90363"
           height="303.04578"
           x="254.55844"
           y="403.29108" /></flowRegion><flowPara
         id="flowPara3810" /></flowRoot>    <text
       xml:space="preserve"
       style="font-style:normal;font-weight:normal;font-size:10.58333302px;line-height:1.25;font-family:sans-serif;letter-spacing:0px;word-spacing:0px;fill:#000000;fill-opacity:1;stroke:none;stroke-width:0.26458332"
       x="141.68085"
       y="26.038656"
       id="text4240"><tspan
         sodipodi:role="line"
         id="tspan4238"
         x="141.68085"
         y="35.694153"
         style="stroke-width:0.26458332" /></text>
    <text
       xml:space="preserve"
       style="font-style:normal;font-weight:normal;font-size:13.09104061px;line-height:1.25;font-family:sans-serif;letter-spacing:0px;word-spacing:0px;fill:#474747;fill-opacity:1;stroke:none;stroke-width:0.32727602"
       x="-2.1000211"
       y="284.69519"
       id="text3706"
       transform="scale(0.97785233,1.0226493)"><tspan
         sodipodi:role="line"
         id="tspan3704"
         x="-2.1000211"
         y="284.69519"
         style="font-style:normal;font-variant:normal;font-weight:normal;font-stretch:normal;font-size:27.92755318px;font-family:'DIN Alternate';-inkscape-font-specification:'DIN Alternate';fill:#474747;fill-opacity:1;stroke-width:0.32727602"
         dx="0 0 0 0 0 0 0 0 -1.75"><tspan
   style="fill:#808000;fill-opacity:1;stroke-width:0.32727602"
   id="tspan3796">mealplan</tspan> </tspan></text>
    <text
       xml:space="preserve"
       style="font-style:normal;font-weight:normal;font-size:13.09114456px;line-height:1.25;font-family:sans-serif;letter-spacing:0px;word-spacing:0px;fill:#000000;fill-opacity:1;stroke:none;stroke-width:0.32727861"
       x="152.93456"
       y="284.6936"
       id="text3706-3"
       transform="scale(0.97784459,1.0226574)"><tspan
         sodipodi:role="line"
         id="tspan3704-9"
         x="152.93456"
         y="284.6936"
         style="font-style:normal;font-variant:normal;font-weight:normal;font-stretch:normal;font-size:27.92777443px;font-family:'DIN Alternate';-inkscape-font-specification:'DIN Alternate';fill:#4d4d4d;stroke-width:0.32727861"><tspan
           style="fill:#ff6600;stroke-width:0.32727861"
           id="tspan3796-2">matic</tspan></tspan></text>
    <circle
       style="fill:#474747;fill-opacity:1;stroke-width:0.34770778"
       id="path5344"
       cx="110.51674"
       cy="283.90549"
       r="2" />
    <circle
       style="fill:#474747;fill-opacity:1;stroke-width:0.34770781"
       id="path5344-0"
       cx="144.60603"
       cy="283.90549"
       r="2" />
    <g
       id="g5400"
       transform="translate(0.07107817,-3.118485)">
      <g
         transform="matrix(0.04155886,0,0,0.04199593,117.34602,276.773)"
         id="g4236">
        <g
           id="g4175">
          <g
             id="g4173">
            <path
               style="fill:#474747"
               inkscape:connector-curvature="0"
               d="m 326.9,67.166 c 6.7,-14.5 13.5,-28.9 20.6,-44.2 -78.6,-33.1 -155.2,-31.5 -228.4,12.1 -70.8,42.1 -109.2,106.1 -119.1,188.5 16.8,1.5 32.7,2.9 48.6,4.2 8.7,-124.5 146.3,-220 278.3,-160.6 z"
               id="path4163" />
            <path
               style="fill:#474747"
               inkscape:connector-curvature="0"
               d="m 484.7,202.466 c -15.8,2.7 -31.5,5.5 -47.9,8.3 8.5,57 -3.3,108.4 -38.1,153.4 -34.6,44.8 -81,69.4 -137.7,75.7 1.4,16.1 2.8,31.8 4.1,47.5 118.7,-4.2 245.9,-123.4 219.6,-284.9 z"
               id="path4165" />
            <path
               style="fill:#474747"
               inkscape:connector-curvature="0"
               d="m 47.9,262.066 c -15.1,1.3 -30.8,2.7 -46.5,4 3.7,99.5 90.5,211.5 221.4,222.1 1.4,-16.1 2.8,-31.9 4.1,-47.2 -102.4,-17.1 -161.7,-76.4 -179,-178.9 z"
               id="path4167" />
            <path
               style="fill:#474747"
               inkscape:connector-curvature="0"
               d="m 398.9,125.566 c 12.2,15.8 21.6,33.2 28.9,52.4 15.2,-5.5 30.2,-11 45.9,-16.7 -18.1,-48.2 -47.6,-86.6 -89.5,-116.7 -9.3,13.3 -18.5,26.3 -28,39.9 16.2,11.9 30.6,25.4 42.7,41.1 z"
               id="path4169" />
            <path
               style="fill:#474747"
               inkscape:connector-curvature="0"
               d="m 267.2,384.166 v -19.1 c 16.3,-3.1 32.1,-9.6 46.3,-19.4 l 13.6,13.6 c 5.1,5 13.2,5 18.3,0 l 14.1,-14.1 c 5,-5.1 5,-13.2 0,-18.3 l -13.8,-13.8 c 9.6,-14.2 15.9,-30 18.9,-46.2 h 19.6 c 7.1,0 12.9,-5.8 12.9,-12.9 v -20 c 0,-7.1 -5.8,-12.9 -12.9,-12.9 h -19.7 c -3.1,-16.2 -9.5,-31.8 -19.1,-45.9 l 14,-14 c 5,-5.1 5,-13.2 0,-18.3 l -14.3,-14.2 c -5.1,-5 -13.2,-5 -18.3,0 l -14,14 c -14.1,-9.6 -29.8,-16 -46,-19.1 v -19.7 c 0,-7.1 -5.8,-12.9 -12.9,-12.9 h -20 c -7.1,0 -12.9,5.8 -12.9,12.9 v 19.6 c -16.2,3 -32,9.4 -46.2,19 l -13.7,-13.6 c -5.1,-5 -13.2,-5 -18.3,0 l -14.1,14.2 c -5,5.1 -5,13.2 0,18.3 l 13.6,13.6 c -9.8,14.2 -16.2,30 -19.3,46.3 h -19.1 c -7.1,0 -12.9,5.8 -12.9,12.9 v 20 c 0,7.1 5.8,12.9 12.9,12.9 h 19 c 3.1,16.4 9.5,32.3 19.2,46.5 l -13.2,13.5 c -5,5.1 -5,13.2 0,18.3 l 14.1,14.1 c 5.1,5 13.2,5 18.3,0 l 13.4,-13.4 c 14.3,9.7 30.2,16.1 46.6,19.2 v 19 c 0,7.1 5.8,12.9 12.9,12.9 h 20 c 7.2,-0.1 13,-5.9 13,-13 z m -70.2,-92.9 c -26,-26 -26.1,-68.2 -0.1,-94.2 26,-26 68.2,-26.1 94.2,-0.1 26,26 26.1,68.2 0.1,94.2 -25.9,26 -68.1,26.1 -94.2,0.1 z"
               id="path4171" />
          </g>
        </g>
        <g
           id="g4177" />
        <g
           id="g4179" />
        <g
           id="g4181" />
        <g
           id="g4183" />
        <g
           id="g4185" />
        <g
           id="g4187" />
        <g
           id="g4189" />
        <g
           id="g4191" />
        <g
           id="g4193" />
        <g
           id="g4195" />
        <g
           id="g4197" />
        <g
           id="g4199" />
        <g
           id="g4201" />
        <g
           id="g4203" />
        <g
           id="g4205" />
      </g>
      <circle
         r="2"
         cy="287.02399"
         cx="127.49031"
         id="path5344-1"
         style="fill:#474747;fill-opacity:1;stroke-width:0.34770781" />
    </g>
  </g>
</svg>
